<svg id="Layer_1" data-name="Layer 1" xmlns="http://www.w3.org/2000/svg" viewBox="0 0 256.5 256" style="fill:#333;"><title>download icon</title><path d="M116.49,138.38v-1.67c0-25.53,0-69.06,0-94.59a12.46,12.46,0,0,1,2.79-8.42,11.88,11.88,0,0,1,12.83-3.57,11.75,11.75,0,0,1,8,11.22c0,11.81,0,41.62,0,53.43v25.06c0,5.72,0,11.43,0,17.15v1.14l.25.12c.29-.29.59-.55.87-.85l26.32-28.76c5.24-5.74,13.47-5.56,18.38.42a11.76,11.76,0,0,1-.54,15c-4,4.43-8.06,8.83-12.09,13.24L141,172.62q-2,2.19-4,4.37a11.77,11.77,0,0,1-17.38,0Q100.76,156.43,82,135.85c-3.54-3.88-7.16-7.7-10.63-11.64a11.2,11.2,0,0,1-2.09-12.66c2.08-4.71,5.91-7,11-7.06a10.79,10.79,0,0,1,8.19,3.56c6.82,7.38,13.58,14.81,20.36,22.22l6.93,7.56A6.12,6.12,0,0,0,116.49,138.38Z"/><path d="M118.21,227.55q-30.84,0-61.68,0a28.39,28.39,0,0,1-28.62-28.61c0-5.68-.05-11.37,0-17.06a11.77,11.77,0,0,1,23-3.31,13.4,13.4,0,0,1,.55,3.72c.06,5.4,0,10.8,0,16.2,0,3.53,2,5.48,5.48,5.48H199.68a4.92,4.92,0,0,0,5.3-5.24c0-5.5,0-11,0-16.51a11.76,11.76,0,0,1,19-9.3,11,11,0,0,1,4.55,8.8c.07,6.16.15,12.32,0,18.47a28.42,28.42,0,0,1-28.32,27.37h-82Z"/></svg>