<svg id="Layer_1" data-name="Layer 1" xmlns="http://www.w3.org/2000/svg" viewBox="0 0 256.5 256" style="fill:#333;"><title>Artboard 1</title><path d="M253.25,127.88c-1.95,49.08-23.5,86.7-66.73,110.65-45.16,25-104.7,16-142.75-19.36C20.54,197.58,7.56,170.84,4.1,139.38c-.86-7.88,1.87-14.23,7.49-19.73q23.49-23,46.74-46.21Q83.73,48.12,109,22.62c3.76-3.78,7.63-7.47,11.13-11.48,6.38-7.29,14.3-8.86,23.51-7.61C171.76,7.38,196.16,19,216.26,39.05c22.78,22.76,35.12,50.38,37,82.59C253.35,123.71,253.25,125.8,253.25,127.88ZM26,138.42c.76,5.4,1.15,11,2.37,16.35C32.75,174,43,189.88,57.56,202.88c26.61,23.78,57.46,33.78,92.8,26,32.27-7.09,56.39-25.55,71.54-55,10.81-21,13.13-43.47,8-66.34C221.06,68.24,197.83,41.37,159,28.93c-6.41-2.06-13.21-2.87-20.13-4.33,0,1.35,0,1.92,0,2.48.47,14.73,1,29.49-1.91,44.06-5.88,29.46-22.61,50.05-50.68,61.05-12,4.71-24.7,5.92-37.49,6.2C41.51,138.55,34.19,138.42,26,138.42Zm22.89-22c11.67,3,32.34.13,47.49-13.72C112.67,87.84,118.88,69,118,47.37Z"/></svg>